HIERARCHY
ROOT RootJoint
{
    OFFSET   0.000000   0.000000   0.000000
    CHANNELS 6 Xposition Yposition Zposition Xrotation Yrotation Zrotation
    JOINT pelvis_lowerback
    {
        OFFSET   0.000000   0.093605   0.000000
        CHANNELS 3 Xrotation Yrotation Zrotation
        JOINT lowerback_torso
        {
            OFFSET   0.000000   0.100000   0.000000
            CHANNELS 3 Xrotation Yrotation Zrotation
            JOINT torso_head
            {
                OFFSET   0.000000   0.282350   0.000000
                CHANNELS 3 Xrotation Yrotation Zrotation
                End Site
                {
                    OFFSET   0.000000   0.192650   0.000000
                }
            }
            JOINT rTorso_Clavicle
            {
                OFFSET  -0.001000   0.157500   0.000000
                CHANNELS 3 Xrotation Yrotation Zrotation
                JOINT rShoulder
                {
                    OFFSET  -0.117647   0.000000   0.000000
                    CHANNELS 3 Xrotation Yrotation Zrotation
                    JOINT rElbow
                    {
                        OFFSET  -0.245000   0.000000   0.000000
                        CHANNELS 3 Xrotation Yrotation Zrotation
                        JOINT rWrist
                        {
                            OFFSET  -0.240000   0.000000   0.000000
                            CHANNELS 3 Xrotation Yrotation Zrotation
                            End Site
                            {
                                OFFSET  -0.116353  -0.002500   0.000000
                            }
                        }
                    }
                }
            }
            JOINT lTorso_Clavicle
            {
                OFFSET   0.001000   0.157500   0.000000
                CHANNELS 3 Xrotation Yrotation Zrotation
                JOINT lShoulder
                {
                    OFFSET   0.117647   0.000000   0.000000
                    CHANNELS 3 Xrotation Yrotation Zrotation
                    JOINT lElbow
                    {
                        OFFSET   0.245000   0.000000   0.000000
                        CHANNELS 3 Xrotation Yrotation Zrotation
                        JOINT lWrist
                        {
                            OFFSET   0.240000   0.000000   0.000000
                            CHANNELS 3 Xrotation Yrotation Zrotation
                            End Site
                            {
                                OFFSET   0.116353  -0.002500   0.000000
                            }
                        }
                    }
                }
            }
        }
    }
    JOINT rHip
    {
        OFFSET  -0.100000  -0.051395   0.000000
        CHANNELS 3 Xrotation Yrotation Zrotation
        JOINT rKnee
        {
            OFFSET   0.000000  -0.410000   0.000000
            CHANNELS 3 Xrotation Yrotation Zrotation
            JOINT rAnkle
            {
                OFFSET   0.000000  -0.390000   0.000000
                CHANNELS 3 Xrotation Yrotation Zrotation
                JOINT rToeJoint
                {
                    OFFSET   0.000000  -0.050000   0.130000
                    CHANNELS 3 Xrotation Yrotation Zrotation
                    End Site
                    {
                        OFFSET  -0.010000   0.002000   0.060000
                    }
                }
            }
        }
    }
    JOINT lHip
    {
        OFFSET   0.100000  -0.051395   0.000000
        CHANNELS 3 Xrotation Yrotation Zrotation
        JOINT lKnee
        {
            OFFSET   0.000000  -0.410000   0.000000
            CHANNELS 3 Xrotation Yrotation Zrotation
            JOINT lAnkle
            {
                OFFSET   0.000000  -0.390000   0.000000
                CHANNELS 3 Xrotation Yrotation Zrotation
                JOINT lToeJoint
                {
                    OFFSET   0.000000  -0.050000   0.130000
                    CHANNELS 3 Xrotation Yrotation Zrotation
                    End Site
                    {
                        OFFSET   0.010000   0.002000   0.060000
                    }
                }
            }
        }
    }
}
MOTION
Frames: 12
Frame Time:   0.008333
 -2.376719   0.925631   3.975860   0.000000   0.000000   0.000000   0.000000   0.000000   0.000000   0.000000   0.000000   0.000000   0.000000   0.000000   0.000000   0.000000   0.000000   0.000000   0.000000   0.000000   0.000000   0.000000   0.000000   0.000000   0.000000   0.000000   0.000000   0.000000   0.000000   0.000000   0.000000   0.000000   0.000000   0.000000   0.000000   0.000000   0.000000   0.000000   0.000000   0.000000   0.000000   0.000000   0.000000   0.000000   0.000000   0.000000   0.000000   0.000000   0.000000   0.000000   0.000000   0.000000   0.000000   0.000000   0.000000   0.000000   0.000000   0.000000   0.000000   0.000000   0.000000   0.000000   0.000000
 -2.376757   0.925003   3.974821   0.416727   0.804764  -0.438721  -0.642567  -0.102579   0.313083   0.281005  -0.151100   0.452061   0.199995   0.402767  -0.350391   0.160125  -1.121735  -0.469034  -2.168654  -0.114375   0.837358   0.019782   3.607977   0.060876   0.051916  -1.299375  -1.452716  -0.397971  -0.158109   0.199800  -0.581358  -0.295566  -1.431490   0.026128  -3.457945  -0.027052   0.116460   1.646593   1.178371  -0.913793   0.466090   0.137041   1.208042   0.003245   0.013424  -0.613793   0.212934  -0.183070   0.103704   0.000427   0.001349  -1.562804  -0.684656   0.821549   3.117701  -0.010876   0.003993  -3.080406  -0.041675  -0.515173  -0.119532  -0.000112  -0.000082
 -2.376338   0.925614   3.973554   0.592928   2.101610  -0.809042  -1.147717  -0.375205   0.613120   0.638669  -0.511604   0.917507   0.436916   0.809551  -0.663912   0.291567  -2.171951  -0.625883  -4.211329  -0.179004   1.808016   0.045540   7.329917   0.109326   0.045568  -1.652420  -2.726218  -0.774791  -0.620964   0.015118  -1.148783  -0.855595  -3.047961   0.060324  -7.103198  -0.049198   0.205157   2.110525   1.988617  -1.629362   0.952004  -0.118537   2.493883   0.010251   0.030556  -1.176450   0.420975  -0.352623   0.220242   0.001143   0.003108  -3.274096  -1.194000   1.218669   5.999899  -0.009645   0.024778  -5.848877   0.090774  -1.267197  -0.216973  -0.000616  -0.000867
 -2.376269   0.925944   3.972400   0.647439   3.303484  -1.410158  -1.625594  -0.618598   1.057711   1.002461  -0.879243   1.469619   0.662293   1.196279  -0.935511   0.418315  -3.052820  -0.639616  -6.116828  -0.195089   2.833852   0.066279  11.087944   0.148427   0.039111  -1.676056  -3.631013  -1.122110  -1.219124  -0.300263  -1.697872  -1.499094  -4.692585   0.089670 -10.809854  -0.068254   0.293034   2.073955   2.396915  -2.300614   1.438860  -0.340704   3.739396   0.018440   0.042288  -1.701027   0.621011  -0.507556   0.315554   0.001745   0.004054  -4.775500  -1.787733   2.050633   8.896583  -0.013224   0.038740  -8.523879   0.135659  -1.764861  -0.392864  -0.000690  -0.001766
 -2.376410   0.925716   3.971390   0.652078   4.341933  -2.079371  -2.101283  -0.842440   1.506963   1.332349  -1.221905   2.039481   0.863107   1.558732  -1.180460   0.542916  -3.787167  -0.545326  -7.892563  -0.181355   3.877868   0.079506  14.870571   0.180637   0.035510  -1.539786  -4.283106  -1.444322  -1.872831  -0.673307  -2.229600  -2.160345  -6.295507   0.111785 -14.546890  -0.084770   0.379998   1.817863   2.597335  -2.982224   1.901775  -0.692089   4.895385   0.026708   0.048053  -2.192009   0.808654  -0.649453   0.392583   0.002208   0.004364  -6.047432  -2.400193   3.156508  11.693521  -0.020474   0.047188 -11.026118   0.184595  -2.189899  -0.558848  -0.000313  -0.002212
 -2.376649   0.924885   3.970496   0.627355   5.243619  -2.751567  -2.566140  -1.064093   1.927208   1.626836  -1.547094   2.589755   1.039395   1.896704  -1.409493   0.666279  -4.410460  -0.379103  -9.545940  -0.159147   4.914654   0.084777  18.668552   0.207171   0.034264  -1.316423  -4.765908  -1.744621  -2.548733  -1.076394  -2.743784  -2.814020  -7.836745   0.126900 -18.301958  -0.098561   0.464527   1.453768   2.685990  -3.674867   2.340047  -1.217571   5.954228   0.034217   0.049478  -2.651146   0.982562  -0.780632   0.460628   0.002595   0.004360  -7.131019  -3.004796   4.414882  14.352991  -0.028862   0.052545 -13.358578   0.251938  -2.581870  -0.706281   0.000205  -0.002378
 -2.376946   0.923474   3.969703   0.574429   6.035857  -3.408791  -3.007239  -1.290986   2.314946   1.896560  -1.862978   3.110412   1.195342   2.211437  -1.625603   0.788789  -4.950502  -0.168684 -11.084165  -0.142109   5.925724   0.082531  22.475377   0.229030   0.034537  -1.049151  -5.135808  -2.025230  -3.229937  -1.494496  -3.239852  -3.449063  -9.309229   0.135962 -22.069198  -0.109566   0.546010   1.030802   2.707959  -4.366142   2.758574  -1.901769   6.922110   0.040472   0.048087  -3.080020   1.143389  -0.902441   0.524509   0.002939   0.004207  -8.067772  -3.590061   5.752476  16.874061  -0.036582   0.056191 -15.530606   0.337721  -2.952666  -0.838251   0.000707  -0.002398
 -2.376917   0.921121   3.968401   0.656867   6.487325  -3.758423  -3.424939  -1.257999   2.437560   2.060686  -2.187639   3.517416   1.439836   2.569160  -1.550529   0.833647  -5.464915  -0.015096 -12.995846   0.043894   6.698262   0.055834  26.238032   0.263264  -0.011822  -1.010432  -5.053466  -2.038871  -3.748377  -1.611185  -3.724418  -3.983044 -10.736428   0.137804 -25.908478  -0.107819   0.623274   0.368748   2.527982  -5.384334   3.181912  -2.962152   8.365576   0.052608   0.045919  -3.940951   1.439321  -0.571345   0.638753   0.003517   0.004408  -9.154555  -3.969230   6.667029  18.938210  -0.038278   0.054175 -16.362090   0.386419  -3.176168  -0.781369   0.000323  -0.001765
 -2.376750   0.918593   3.966998   0.683221   6.972058  -4.015553  -3.738502  -1.237480   2.528642   2.263325  -2.489923   3.866445   1.679690   2.900662  -1.465667   0.863513  -5.931753   0.043909 -14.795103   0.217189   7.346001   0.022038  30.008163   0.288270  -0.066914  -0.974601  -5.134229  -2.048643  -4.227109  -1.695212  -4.184610  -4.467887 -12.046737   0.135089 -29.747043  -0.103200   0.706402  -0.308274   2.384010  -6.243624   3.583076  -4.093647   9.753956   0.061369   0.043095  -4.742501   1.708745  -0.258966   0.754127   0.003993   0.004526 -10.381778  -4.195771   7.173340  20.999217  -0.033238   0.054746 -17.047324   0.503190  -3.515014  -0.639945   0.000166  -0.000678
 -2.376735   0.915999   3.965740   0.678171   7.429312  -4.315124  -4.011330  -1.196348   2.658806   2.487650  -2.750568   4.207450   1.913674   3.210010  -1.380632   0.888201  -6.356819   0.035292 -16.480053   0.375661   7.905319  -0.015258  33.781859   0.307496  -0.113496  -0.918745  -5.329017  -2.055729  -4.666959  -1.752489  -4.620678  -4.907855 -13.257464   0.129113 -33.584576  -0.098577   0.788971  -0.957170   2.281037  -6.980625   3.971978  -5.114818  11.064167   0.066533   0.039538  -5.489766   1.956847   0.036293   0.868310   0.004315   0.004533 -11.581226  -4.362917   7.462704  23.099563  -0.024226   0.054537 -17.625780   0.617463  -3.848035  -0.518020   0.000333   0.000149
 -2.377109   0.913324   3.964665   0.670128   7.745713  -4.643411  -4.268710  -1.092645   2.777188   2.705282  -2.935228   4.536816   2.135765   3.500485  -1.296212   0.909505  -6.729544  -0.008792 -18.056015   0.528811   8.406980  -0.054799  37.561973   0.323610  -0.152818  -0.833882  -5.580734  -2.060774  -5.053204  -1.769148  -5.032642  -5.295088 -14.363823   0.120679 -37.416361  -0.095218   0.869641  -1.555035   2.226231  -7.671403   4.353252  -6.016932  12.294254   0.068520   0.034539  -6.187439   2.186749   0.316308   0.971790   0.004405   0.004296 -12.676422  -4.629212   7.776397  25.094435  -0.018037   0.049622 -18.169711   0.667704  -4.067022  -0.397138   0.000369   0.000494
 -2.377832   0.910572   3.963773   0.666184   7.983525  -4.975761  -4.512731  -0.956855   2.870778   2.907046  -3.063333   4.833892   2.343748   3.771591  -1.217161   0.925248  -7.047692  -0.085904 -19.532242   0.688815   8.857924  -0.093115  41.168750   0.334109  -0.179490  -0.646199  -5.871466  -2.065813  -5.399496  -1.755455  -5.422507  -5.640270 -15.377350   0.110680 -41.244176  -0.093535   0.948429  -2.105177   2.215778  -8.309518   4.715779  -6.837938  13.439747   0.068133   0.029243  -6.839576   2.398683   0.581190   1.063605   0.004319   0.003935 -13.693852  -4.913499   8.110246  26.979716  -0.013885   0.043834 -18.678465   0.706814  -4.258196  -0.284237   0.000358   0.000646
